<svg width="34" height="34" viewBox="0 0 34 34" fill="none" xmlns="http://www.w3.org/2000/svg">
<g clip-path="url(#clip0_1306_672)">
<path d="M22.3439 0.851654C21.8763 0.851654 21.4755 1.25244 21.4755 1.72002V4.09134C21.4755 4.55892 21.8763 4.95971 22.3439 4.95971C22.8115 4.95971 23.2123 4.55892 23.2123 4.09134V1.72002C23.2123 1.25244 22.8115 0.851654 22.3439 0.851654Z" fill="#454545"/>
<path d="M30.56 4.25833C30.226 3.92435 29.6916 3.92435 29.3576 4.25833L27.6877 5.92827C27.3537 6.26226 27.3537 6.79664 27.6877 7.13063C28.0217 7.46462 28.5561 7.46462 28.89 7.13063L30.56 5.46069C30.894 5.1267 30.894 4.59232 30.56 4.25833Z" fill="#454545"/>
<path d="M16.9667 5.92827L15.2967 4.25833C14.9627 3.92435 14.4283 3.92435 14.0944 4.25833C13.7604 4.59232 13.7604 5.1267 14.0944 5.46069L15.7643 7.13063C16.0983 7.46462 16.6327 7.46462 16.9667 7.13063C17.3006 6.79664 17.3006 6.26226 16.9667 5.92827Z" fill="#454545"/>
<path d="M22.9785 26.9362C22.3105 26.2682 21.4087 25.8674 20.4068 25.8674C20.3734 25.8674 20.34 25.8674 20.34 25.8674H10.9549C10.4873 25.8674 10.0865 26.2348 10.0865 26.7358C10.0865 27.2034 10.4539 27.6041 10.9549 27.6041H20.34C20.3734 27.6041 20.3734 27.6041 20.4068 27.6041C20.9411 27.6041 21.4087 27.8045 21.7427 28.1719C22.0767 28.5059 22.3105 29.0069 22.3105 29.5079C22.3105 30.0423 22.1101 30.5098 21.7427 30.8438C21.4087 31.1778 20.9077 31.4116 20.4068 31.4116C19.8724 31.4116 19.4048 31.2112 19.0708 30.8438C18.7368 30.5098 18.503 30.0089 18.503 29.5079C18.503 29.0403 18.1022 28.6395 17.6347 28.6395C17.1671 28.6395 16.7663 29.0403 16.7663 29.5079C16.7663 30.5098 17.1671 31.4116 17.835 32.0796C18.503 32.7476 19.4048 33.1483 20.4068 33.1483C21.4087 33.1483 22.3105 32.7476 22.9785 32.0796C23.6464 31.4116 24.0472 30.5098 24.0472 29.5079C24.0472 28.5059 23.6464 27.6041 22.9785 26.9362Z" fill="#454545"/>
<path d="M30.5266 19.4882L28.89 17.8516C28.5561 17.5177 28.0217 17.5177 27.6877 17.8516C27.5541 17.9852 27.4873 18.1188 27.4539 18.2858C27.4205 17.5177 27.2201 16.8163 26.9529 16.1483C27.2869 15.7141 27.5875 15.2131 27.7879 14.7122C28.0885 14.0108 28.2221 13.2426 28.2221 12.4744C28.2221 10.8379 27.5541 9.36834 26.4853 8.33298C25.4166 7.29762 23.947 6.62964 22.3439 6.62964C21.2417 6.62964 20.2063 6.93023 19.3046 7.46461C18.67 7.86539 18.1022 8.36638 17.6346 8.96756C16.2987 8.06579 14.6955 7.53141 12.9922 7.53141C10.9549 7.53141 9.08454 8.26618 7.64839 9.50194C6.37924 10.6041 5.44407 12.0736 5.00988 13.8104C3.70733 13.9774 2.53837 14.5786 1.67 15.4469C0.634639 16.4823 6.10352e-05 17.9184 6.10352e-05 19.4882C6.10352e-05 21.0579 0.634639 22.4941 1.67 23.5294C2.70537 24.5648 4.14152 25.1994 5.71126 25.1994H20.9077C22.7113 25.1994 24.3144 24.4646 25.5168 23.2956C26.6857 22.1267 27.4205 20.4901 27.4205 18.6866V18.6532C27.4539 18.7868 27.5207 18.9204 27.6543 19.0206L29.3242 20.6905C29.6582 21.0245 30.1926 21.0245 30.5266 20.6905C30.8606 20.3566 30.8606 19.8222 30.5266 19.4882ZM24.3478 22.0933C23.4794 22.9617 22.2771 23.496 20.9745 23.496H5.74466C4.6425 23.496 3.64053 23.0619 2.90576 22.3271C2.17098 21.5923 1.7368 20.5903 1.7368 19.4882C1.7368 18.386 2.17098 17.3841 2.90576 16.6493C3.64053 15.9145 4.6425 15.4803 5.74466 15.4803C5.87825 15.4803 6.04525 15.4469 6.14544 15.3801C6.34584 15.2465 6.47943 15.0461 6.51283 14.8123C6.74662 13.2426 7.54819 11.8399 8.68375 10.8713C9.81931 9.90272 11.3223 9.30154 12.9254 9.30154C14.2948 9.30154 15.5639 9.73573 16.6327 10.4705C17.4342 11.0383 18.1356 11.7731 18.6032 12.6748C18.4696 12.7416 18.336 12.775 18.2024 12.8418C17.3674 13.2092 16.6327 13.777 15.9981 14.445C15.6975 14.8123 15.7309 15.3467 16.0649 15.6473C16.4323 15.9479 16.9667 15.9145 17.2673 15.5805C17.7348 15.0795 18.2692 14.6788 18.8704 14.3782C19.4716 14.111 20.1396 13.944 20.8409 13.944C22.1769 13.944 23.3458 14.4784 24.2142 15.3467C25.0826 16.2151 25.617 17.4175 25.617 18.72C25.7172 20.056 25.1828 21.2249 24.3478 22.0933ZM26.1847 14.0776C26.1179 14.2446 26.0511 14.4116 25.9509 14.5452C25.8173 14.3782 25.6838 14.2446 25.5502 14.111C24.3812 12.942 22.7447 12.2072 20.9411 12.2072C20.7741 12.2072 20.5737 12.2072 20.4067 12.2406C20.0394 11.4391 19.5384 10.7043 18.9372 10.1031C19.2712 9.63553 19.7054 9.26814 20.173 8.96756C20.8075 8.56677 21.5423 8.36638 22.3105 8.36638C23.446 8.36638 24.5148 8.83396 25.2496 9.56873C26.0177 10.3369 26.4519 11.3723 26.4519 12.5078C26.4853 13.0756 26.3851 13.61 26.1847 14.0776Z" fill="#454545"/>
<path d="M33.1317 11.6395H30.7604C30.2928 11.6395 29.892 12.0403 29.892 12.5079C29.892 12.9755 30.2928 13.3762 30.7604 13.3762H33.1317C33.5993 13.3762 34.0001 12.9755 34.0001 12.5079C33.9667 12.0403 33.5993 11.6395 33.1317 11.6395Z" fill="#454545"/>
</g>
<defs>
<clipPath id="clip0_1306_672">
<rect width="34" height="34" fill="white"/>
</clipPath>
</defs>
</svg>

