<svg width="484" height="66" viewBox="0 0 484 66" fill="none" xmlns="http://www.w3.org/2000/svg">
<path d="M29.1338 58.2598C45.224 58.2598 58.2676 45.218 58.2676 29.1299C58.2676 13.0419 45.224 0 29.1338 0C13.0437 0 0 13.0419 0 29.1299C0 45.218 13.0437 58.2598 29.1338 58.2598Z" fill="#FC8001"/>
<path d="M29.1879 1.62097C15.7456 1.62097 4.84314 12.5219 4.84314 25.9624C4.84314 27.2726 4.95121 28.5626 5.1471 29.8122C8.29488 21.5925 16.8939 15.6828 27.0128 15.6828C35.4632 15.6828 42.853 19.8027 46.8924 25.9489C46.9194 25.9489 46.9397 25.9489 46.9667 25.9489C49.5808 25.9489 51.783 26.7796 53.4176 28.198C53.4853 27.4617 53.5257 26.712 53.5257 25.9556C53.5257 12.5152 42.6302 1.62097 29.1879 1.62097Z" fill="#FDCC01"/>
<path d="M53.4248 28.1979C51.7833 26.7728 49.588 25.9489 46.9738 25.9489C46.9469 25.9489 46.9265 25.9489 46.8996 25.9489C39.7394 25.9894 32.2008 32.2099 30.0459 39.8824C28.8975 43.9686 29.5055 47.6426 31.4036 50.1957C30.6743 50.2634 29.9378 50.3038 29.1882 50.3038C17.0563 50.3038 6.99825 41.429 5.15415 29.8122C4.3233 31.9803 3.87073 34.3035 3.87073 36.7281C3.87073 42.6852 6.59295 48.0546 10.9701 51.8842C13.6721 54.0388 16.7591 55.7273 20.1163 56.8213C22.9601 57.7467 25.993 58.2532 29.1409 58.2532C37.8749 58.2532 45.7039 54.4035 51.0402 48.318C52.8775 46.2176 54.4244 43.8605 55.6066 41.294C55.7821 40.8278 55.9374 40.362 56.0659 39.8824C57.437 34.9923 56.2889 30.6834 53.4248 28.1979Z" fill="#FD0024"/>
<path d="M210.937 26.827V50.8173C210.937 51.0604 210.742 51.2562 210.5 51.2562H204.91C204.667 51.2562 204.472 51.0604 204.472 50.8173V28.9276C204.472 22.0047 200.687 17.9253 194.175 17.9253C187.979 17.9253 183.13 22.2411 183.13 29.0829V50.8173C183.13 51.0604 182.934 51.2562 182.692 51.2562H177.102C176.86 51.2562 176.664 51.0604 176.664 50.8173V28.9276C176.664 22.0047 172.88 17.9253 166.367 17.9253C160.333 17.9253 155.282 22.0789 155.282 29.0829V50.8173C155.282 51.0604 155.087 51.2562 154.844 51.2562H149.295C149.052 51.2562 148.857 51.0604 148.857 50.8173V13.0219C148.857 12.7787 149.052 12.5829 149.295 12.5829H154.804C155.046 12.5829 155.241 12.7787 155.241 13.0219V16.2435C155.241 16.6487 155.74 16.8379 156.003 16.5339C159.08 13.0286 163.518 11.7859 167.512 11.7859C173.56 11.7859 178.395 14.3659 180.988 18.6817C181.163 18.9721 181.567 18.9721 181.743 18.6817C184.901 13.5014 190.444 11.7859 195.333 11.7859C204.587 11.7926 210.937 17.8037 210.937 26.827Z" fill="white"/>
<path d="M256.262 31.3791C256.262 42.7325 248.018 50.9657 237.519 50.9657C232.084 50.9657 227.949 49.0341 225.053 45.9879C224.784 45.7044 224.305 45.9068 224.305 46.2987V65.561C224.305 65.8041 224.11 65.9999 223.868 65.9999H218.318C218.076 65.9999 217.881 65.8041 217.881 65.561V13.0286C217.881 12.7854 218.076 12.5896 218.318 12.5896H223.868C224.11 12.5896 224.305 12.7854 224.305 13.0286V16.4596C224.305 16.8513 224.784 17.054 225.053 16.7703C227.956 13.731 232.091 11.7926 237.519 11.7926C248.012 11.7926 256.262 20.0257 256.262 31.3791ZM223.908 31.3791C223.908 39.092 229.195 44.914 236.771 44.914C244.543 44.914 249.635 38.8624 249.635 31.3791C249.635 23.9025 244.429 17.8847 236.771 17.8847C229.195 17.8847 223.908 23.6999 223.908 31.3791Z" fill="white"/>
<path d="M329.153 20.5255C329.029 20.7484 328.754 20.8159 328.54 20.6808C326.068 19.1274 321.527 17.4525 316.855 17.4525C311.724 17.4525 308.41 19.6272 308.41 23.0312C308.41 26.0367 311.13 27.4213 315.67 27.9752L320.012 28.5291C327.979 29.5961 332.681 32.9596 332.681 39.1732C332.681 46.3323 326.29 50.9658 316.074 50.9658C311.561 50.9658 305.5 49.9054 300.625 46.3865C300.435 46.2515 300.388 45.9811 300.509 45.7853L303.034 41.7195C303.168 41.5033 303.46 41.4494 303.669 41.5979C306.43 43.6445 310.12 45.3057 316.113 45.3057C322.27 45.3057 326.054 43.2864 326.054 39.5717C326.054 36.8025 323.609 35.0601 318.519 34.4251L314.179 33.9119C305.775 32.8854 301.714 29.0827 301.714 23.3892C301.714 16.1895 307.676 11.8331 316.786 11.8331C322.526 11.8331 327.778 13.319 331.4 15.6829C331.595 15.8112 331.658 16.0679 331.543 16.2705L329.153 20.5255Z" fill="white"/>
<path d="M362.057 20.5255C361.936 20.7484 361.661 20.8159 361.443 20.6808C358.974 19.1274 354.434 17.4525 349.759 17.4525C344.627 17.4525 341.313 19.6272 341.313 23.0312C341.313 26.0367 344.036 27.4213 348.573 27.9752L352.918 28.5291C360.885 29.5961 365.588 32.9596 365.588 39.1732C365.588 46.3323 359.194 50.9658 348.978 50.9658C344.468 50.9658 338.404 49.9054 333.528 46.3865C333.341 46.2515 333.294 45.9811 333.415 45.7853L335.94 41.7195C336.075 41.5033 336.363 41.4494 336.572 41.5979C339.333 43.6445 343.024 45.3057 349.019 45.3057C355.173 45.3057 358.96 43.2864 358.96 39.5717C358.96 36.8025 356.515 35.0601 351.422 34.4251L347.086 33.9119C338.682 32.8854 334.62 29.0827 334.62 23.3892C334.62 16.1895 340.579 11.8331 349.693 11.8331C355.429 11.8331 360.684 13.319 364.306 15.6829C364.501 15.8112 364.562 16.0679 364.449 16.2705L362.057 20.5255Z" fill="white"/>
<path d="M97.1749 41.0575C97.0066 40.8887 96.7371 40.8887 96.5688 41.0575C91.033 46.3054 83.2005 46.1566 78.0013 40.9426C72.674 35.6002 72.6471 27.5699 78.1966 21.9978C83.6449 16.5338 91.4235 16.4865 96.7505 21.5317C96.9257 21.6938 97.1883 21.7006 97.3566 21.5317L101.034 17.844C101.209 17.6685 101.209 17.378 101.027 17.2024C92.9995 9.4624 81.3013 9.54344 73.5361 17.324C65.67 25.2126 65.697 37.1605 73.7314 45.218C81.6514 53.1606 93.3631 53.3294 101.236 45.7716C101.418 45.6027 101.418 45.3057 101.243 45.13L97.1749 41.0575Z" fill="white"/>
<path d="M110.866 31.3654C111.102 31.3654 111.291 31.1764 111.297 30.9333C111.513 23.2945 117.157 17.8508 124.504 17.8508C132.04 17.8508 137.724 23.5106 137.724 31.3857C137.724 39.1124 132.256 44.6641 124.935 44.8734C124.699 44.8802 124.504 45.0694 124.504 45.3057V50.5197C124.504 50.7696 124.713 50.9723 124.955 50.9654C136.088 50.7427 144.311 42.3948 144.311 31.3857C144.311 20.2282 135.865 11.7992 124.504 11.7992C113.304 11.7992 104.9 19.985 104.664 30.9061C104.657 31.1561 104.866 31.3654 105.108 31.3654H110.866Z" fill="white"/>
<path d="M296.211 12.5828H290.661C290.419 12.5828 290.224 12.7786 290.224 13.0218V16.3785C286.811 13.3122 282.265 11.4954 277.131 11.4954C266.007 11.4954 257.602 19.9649 257.602 31.3588C257.602 42.5909 265.764 51.0199 276.661 51.2561C276.911 51.263 277.12 51.0534 277.12 50.8103V45.0425C277.12 44.806 276.93 44.6171 276.688 44.6102C269.071 44.3941 263.643 38.7343 263.643 31.3588C263.643 23.8011 269.287 18.1008 277.139 18.1008C283.833 18.1008 290.232 22.7948 290.232 28.1506V50.8103C290.232 51.0534 290.427 51.2495 290.669 51.2495H296.219C296.461 51.2495 296.656 51.0534 296.656 50.8103V13.015C296.656 12.7854 296.455 12.5828 296.211 12.5828Z" fill="white"/>
<path d="M128.673 35.4181L130.552 28.3941C130.956 26.8879 129.582 25.5101 128.08 25.9153L121.076 27.7998C119.574 28.2049 119.069 30.0826 120.174 31.1903L125.299 36.33C126.396 37.4242 128.275 36.9243 128.673 35.4181Z" fill="#FDCC01"/>
<path d="M379.838 46.6023C379.838 49.2134 377.726 51.3301 375.122 51.3301C372.518 51.3301 370.408 49.2134 370.408 46.6023C370.408 43.9912 372.518 41.8745 375.122 41.8745C377.726 41.8745 379.838 43.9912 379.838 46.6023Z" fill="white"/>
<path d="M480.433 37.3362C475.874 37.3362 473.778 34.9927 473.778 30.4203V2.28308H459.811V23.1799C456.64 16.3448 449.721 11.6036 441.702 11.6036C433.68 11.6036 426.77 16.3381 423.591 23.1799V12.0291H409.799V31.6899C409.799 35.2358 407.94 37.6401 404.822 37.6401C401.703 37.6401 399.844 35.2358 399.844 31.6899V12.0291H385.877V31.8723C385.877 44.016 393.313 51.6547 404.822 51.6547C414.062 51.6547 420.662 46.508 422.823 38.1805C425.524 46.0218 432.954 51.6547 441.694 51.6547C450.321 51.6547 457.669 46.1703 460.457 38.4912C462.517 47.4065 469.246 51.3508 478.263 51.3508H481.8V37.3428H480.433V37.3362ZM441.702 37.6401C438.402 37.6401 435.707 34.9319 435.707 31.6292C435.707 28.3195 438.408 25.6181 441.702 25.6181C445.002 25.6181 447.694 28.3264 447.694 31.6292C447.694 34.9319 444.994 37.6401 441.702 37.6401Z" fill="white"/>
</svg>
